<?xml version="1.0" encoding="UTF-8" standalone="no"?>
<!DOCTYPE svg PUBLIC "-//W3C//DTD SVG 1.1//EN" "http://www.w3.org/Graphics/SVG/1.1/DTD/svg11.dtd">
<svg width="100%" height="100%" viewBox="0 0 651 620" version="1.1" xmlns="http://www.w3.org/2000/svg" xmlns:xlink="http://www.w3.org/1999/xlink" xml:space="preserve" xmlns:serif="http://www.serif.com/" style="fill-rule:evenodd;clip-rule:evenodd;stroke-linejoin:round;stroke-miterlimit:2;">
    <g transform="matrix(1,0,0,1,-175.811,-189.531)">
        <g id="Layer-1" serif:id="Layer 1">
            <g transform="matrix(1,0,0,1,825.522,552.816)">
                <path d="M0,-105.529C-1.479,-112.361 -8.21,-116.709 -15.044,-115.231C-21.887,-113.753 -26.229,-107.024 -24.759,-100.184C-23.28,-93.352 -16.54,-89.012 -9.706,-90.482C-2.871,-91.96 1.479,-98.697 0,-105.529M-28.859,-23.469C-30.845,-32.664 -39.906,-38.499 -49.096,-36.523C-58.286,-34.538 -64.132,-25.48 -62.146,-16.293C-60.169,-7.098 -51.108,-1.263 -41.909,-3.24C-32.719,-5.225 -26.873,-14.282 -28.859,-23.469M-73.167,-157.34C-62.765,-164.524 -60.16,-178.772 -67.347,-189.17C-74.534,-199.568 -88.787,-202.172 -99.189,-194.988C-109.591,-187.804 -112.196,-173.556 -105.009,-163.157C-97.822,-152.759 -83.569,-150.155 -73.167,-157.34M-131.057,-140.883C-129.02,-167.532 -135.674,-194.997 -152.059,-218.698C-183.996,-264.897 -242.307,-281.844 -292.753,-263.556C-337.825,-292.422 -397.444,-293.634 -444.235,-261.313C-467.919,-244.951 -484.795,-222.453 -494.303,-197.446C-508.075,-195.581 -521.658,-190.975 -533.882,-182.528C-574.287,-154.615 -584.947,-100.201 -559.311,-58.943C-594.102,-27.087 -602.123,25.953 -575.688,66.927C-560.008,91.221 -535.378,105.856 -508.926,110.204C-508.436,130.03 -502.487,149.941 -490.365,167.472C-457.217,215.433 -391.443,227.446 -343.473,194.309C-341.642,193.038 -340.224,191.431 -338.496,190.073C-311.76,213.929 -271.622,217.864 -240.837,196.596C-224.409,185.252 -213.904,168.744 -209.322,150.809C-185.234,151.694 -160.707,145.575 -139.353,130.82C-88.125,95.432 -74.379,26.236 -107.15,-25.97C-80.844,-48.15 -75.178,-86.941 -95.389,-115.575C-104.399,-128.354 -117.148,-136.741 -131.057,-140.883M-262.905,-332.906C-270.547,-345.625 -287.053,-349.75 -299.768,-342.11C-312.491,-334.479 -316.609,-317.979 -308.975,-305.261C-301.332,-292.543 -284.826,-288.426 -272.112,-296.057C-259.389,-303.697 -255.271,-320.196 -262.905,-332.906M-446.428,-351.924C-448.104,-359.693 -455.764,-364.634 -463.535,-362.958C-471.315,-361.282 -476.258,-353.626 -474.573,-345.849C-472.897,-338.08 -465.237,-333.139 -457.466,-334.814C-449.686,-336.49 -444.743,-344.156 -446.428,-351.924M-507.722,-225.822C-498.378,-232.276 -496.039,-245.08 -502.495,-254.421C-508.952,-263.763 -521.761,-266.1 -531.105,-259.646C-540.441,-253.192 -542.788,-240.388 -536.332,-231.047C-529.876,-221.714 -517.067,-219.368 -507.722,-225.822M-600.292,-51.218C-591.833,-63.549 -594.97,-80.401 -607.307,-88.857C-619.643,-97.314 -636.501,-94.177 -644.96,-81.845C-653.419,-69.513 -650.282,-52.661 -637.945,-44.205C-625.609,-35.749 -608.751,-38.886 -600.292,-51.218M-551.841,143.521C-550.379,150.319 -543.674,154.642 -536.882,153.172C-530.082,151.703 -525.758,145.008 -527.228,138.211C-528.698,131.413 -535.395,127.099 -542.195,128.56C-548.986,130.03 -553.311,136.724 -551.841,143.521M-350.695,224.825C-358.647,230.317 -360.641,241.213 -355.148,249.162C-349.654,257.111 -338.754,259.105 -330.802,253.614C-322.85,248.114 -320.855,237.217 -326.349,229.268C-331.842,221.319 -342.743,219.334 -350.695,224.825M-185.113,175.292C-198,184.195 -201.232,201.855 -192.326,214.737C-183.42,227.618 -165.753,230.849 -152.858,221.946C-139.972,213.044 -136.748,195.384 -145.654,182.502C-154.56,169.612 -172.227,166.389 -185.113,175.292" style="fill:rgb(237,28,64);fill-rule:nonzero;"/>
            </g>
            <g transform="matrix(1,0,0,1,633.089,413.434)">
                <path d="M0,202.86C-3.911,177.887 -50.162,197.145 -53.016,169.783C-57.057,130.958 0.688,47.282 -3.869,14.798C-7.961,-14.446 -27.673,-20.573 -44.823,-20.874C-61.484,-21.175 -65.885,-18.519 -71.516,-15.245C-74.766,-13.363 -79.434,-9.633 -85.916,-15.795C-90.223,-19.894 -93.068,-22.764 -97.624,-26.399C-99.945,-28.256 -103.642,-30.593 -109.832,-31.504C-116.03,-32.415 -124.051,-31.504 -129.148,-29.321C-134.255,-27.13 -138.261,-23.306 -142.456,-19.662C-146.643,-16.018 -157.277,-4.116 -167.189,-8.508C-171.487,-10.406 -186.042,-17.677 -196.547,-22.223C-216.826,-30.997 -246.073,-16.783 -256.603,1.934C-272.275,29.777 -303.215,139.173 -307.9,153.602C-318.405,186 -294.584,212.408 -262.458,210.887C-248.875,210.242 -239.84,205.283 -231.26,189.686C-226.3,180.68 -179.723,59.055 -176.259,53.22C-173.748,48.992 -165.367,43.406 -158.257,47.05C-151.156,50.694 -149.738,58.29 -150.786,65.449C-152.489,77.024 -185.337,151.221 -186.6,159.617C-188.741,173.891 -181.958,181.832 -167.137,182.605C-156.976,183.147 -146.858,179.494 -138.82,164.344C-134.324,155.87 -82.52,52.154 -77.938,45.228C-72.9,37.631 -68.851,35.131 -63.719,35.397C-59.739,35.595 -53.368,36.617 -54.959,48.545C-56.523,60.241 -98.174,136.346 -102.542,154.985C-108.387,179.898 -94.71,205.129 -72.178,216.172C-57.804,223.21 5.072,235.275 0,202.86" style="fill:white;fill-rule:nonzero;"/>
            </g>
        </g>
    </g>
</svg>
