<?xml version="1.0" standalone="no"?>
<!DOCTYPE svg PUBLIC "-//W3C//DTD SVG 1.1//EN" "http://www.w3.org/Graphics/SVG/1.1/DTD/svg11.dtd">
<svg
  viewBox="0 0 960 500"
  version="1.1"
  xmlns="http://www.w3.org/2000/svg"
  xmlns:xlink="http://www.w3.org/1999/xlink"
  style="block-size:500px;height:500px;inline-size:960px;perspective-origin:480px 250px;transform-origin:480px 250px;width:960px"
><path
  d="M798,391L805,422L843,419L847,387L812,376Z"
  fill="rgb(243, 151, 150)"
  stroke="rgb(243, 151, 150)"
/>
<path
  d="M799,431L810,455L828,457L851,431L843,419L805,422Z"
  fill="rgb(237, 143, 136)"
  stroke="rgb(237, 143, 136)"
/>
<path
  d="M763,387L766,389L798,391L812,376L809,362L768,344Z"
  fill="rgb(255, 173, 174)"
  stroke="rgb(255, 173, 174)"
/>
<path
  d="M809,362L812,376L847,387L854,382L857,357L824,334Z"
  fill="rgb(244, 152, 159)"
  stroke="rgb(244, 152, 159)"
/>
<path
  d="M810,313L823,329L866,310L867,303L854,283L834,276Z"
  fill="rgb(246, 155, 172)"
  stroke="rgb(246, 155, 172)"
/>
<path
  d="M843,419L851,431L858,434L877,430L891,396L887,390L854,382L847,387Z"
  fill="rgb(229, 129, 131)"
  stroke="rgb(229, 129, 131)"
/>
<path
  d="M720,406L723,423L762,438L762,438L766,389L763,387L729,387Z"
  fill="rgb(255, 181, 171)"
  stroke="rgb(255, 181, 171)"
/>
<path
  d="M670,422L686,448L709,442L723,423L720,406L680,402L670,413Z"
  fill="rgb(255, 196, 180)"
  stroke="rgb(255, 196, 180)"
/>
<path
  d="M635,454L675,471L678,469L686,448L670,422L638,439Z"
  fill="rgb(255, 202, 179)"
  stroke="rgb(255, 202, 179)"
/>
<path
  d="M723,375L729,387L763,387L768,344L765,339L742,339Z"
  fill="rgb(255, 188, 187)"
  stroke="rgb(255, 188, 187)"
/>
<path
  d="M765,339L768,344L809,362L824,334L823,329L810,313L808,313L768,333Z"
  fill="rgb(255, 171, 178)"
  stroke="rgb(255, 171, 178)"
/>
<path
  d="M641,398L670,413L680,402L679,376L660,361L641,367Z"
  fill="rgb(255, 213, 200)"
  stroke="rgb(255, 213, 200)"
/>
<path
  d="M594,381L623,410L641,398L641,367L624,359L600,366Z"
  fill="rgb(255, 222, 207)"
  stroke="rgb(255, 222, 207)"
/>
<path
  d="M717,312L719,321L742,339L765,339L768,333L761,301L735,293Z"
  fill="rgb(255, 194, 201)"
  stroke="rgb(255, 194, 201)"
/>
<path
  d="M762,438L799,431L805,422L798,391L766,389Z"
  fill="rgb(251, 167, 160)"
  stroke="rgb(251, 167, 160)"
/>
<path
  d="M588,440L625,461L635,454L638,439L621,416L590,435Z"
  fill="rgb(255, 214, 189)"
  stroke="rgb(255, 214, 189)"
/>
<path
  d="M687,282L692,298L717,312L735,293L735,272L700,260L691,268Z"
  fill="rgb(255, 207, 217)"
  stroke="rgb(255, 207, 217)"
/>
<path
  d="M759,462L795,481L810,455L799,431L762,438L762,438Z"
  fill="rgb(242, 155, 142)"
  stroke="rgb(242, 155, 142)"
/>
<path
  d="M545,418L546,431L549,436L578,445L588,440L590,435L581,390L566,391Z"
  fill="rgb(255, 227, 203)"
  stroke="rgb(255, 227, 203)"
/>
<path
  d="M709,442L728,468L754,467L759,462L762,438L723,423Z"
  fill="rgb(254, 178, 161)"
  stroke="rgb(254, 178, 161)"
/>
<path
  d="M858,434L864,468L886,476L892,472L894,441L877,430Z"
  fill="rgb(218, 114, 111)"
  stroke="rgb(218, 114, 111)"
/>
<path
  d="M644,287L655,319L666,325L692,298L687,282Z"
  fill="rgb(255, 221, 225)"
  stroke="rgb(255, 221, 225)"
/>
<path
  d="M831,271L834,276L854,283L874,261L867,240L847,239Z"
  fill="rgb(240, 149, 176)"
  stroke="rgb(240, 149, 176)"
/>
<path
  d="M578,472L593,489L622,474L625,461L588,440L578,445Z"
  fill="rgb(255, 211, 179)"
  stroke="rgb(255, 211, 179)"
/>
<path
  d="M795,481L802,501L836,501L842,482L828,457L810,455Z"
  fill="rgb(230, 137, 124)"
  stroke="rgb(230, 137, 124)"
/>
<path
  d="M575,335L600,366L624,359L626,331L612,315L592,314L576,330Z"
  fill="rgb(255, 233, 225)"
  stroke="rgb(255, 233, 225)"
/>
<path
  d="M781,282L808,313L810,313L834,276L831,271L803,256L783,264L782,265Z"
  fill="rgb(254, 171, 189)"
  stroke="rgb(254, 171, 189)"
/>
<path
  d="M823,329L824,334L857,357L882,336L866,310Z"
  fill="rgb(241, 147, 160)"
  stroke="rgb(241, 147, 160)"
/>
<path
  d="M624,359L641,367L660,361L669,335L666,325L655,319L626,331Z"
  fill="rgb(255, 223, 218)"
  stroke="rgb(255, 223, 218)"
/>
<path
  d="M622,474L640,501L660,501L675,471L635,454L625,461Z"
  fill="rgb(255, 198, 169)"
  stroke="rgb(255, 198, 169)"
/>
<path
  d="M541,366L566,391L581,390L594,381L600,366L575,335L544,351Z"
  fill="rgb(255, 236, 221)"
  stroke="rgb(255, 236, 221)"
/>
<path
  d="M666,325L669,335L701,341L719,321L717,312L692,298Z"
  fill="rgb(255, 212, 213)"
  stroke="rgb(255, 212, 213)"
/>
<path
  d="M896,265L905,284L920,291L931,284L933,243L908,237Z"
  fill="rgb(221, 118, 149)"
  stroke="rgb(221, 118, 149)"
/>
<path
  d="M867,240L874,261L896,265L908,237L894,219L889,216Z"
  fill="rgb(231, 134, 165)"
  stroke="rgb(231, 134, 165)"
/>
<path
  d="M802,501L795,481L759,462L754,467L751,501Z"
  fill="rgb(238, 154, 132)"
  stroke="rgb(238, 154, 132)"
/>
<path
  d="M679,376L680,402L720,406L729,387L723,375L705,365Z"
  fill="rgb(255, 201, 192)"
  stroke="rgb(255, 201, 192)"
/>
<path
  d="M544,297L576,330L592,314L586,285L557,281Z"
  fill="rgb(255, 243, 239)"
  stroke="rgb(255, 243, 239)"
/>
<path
  d="M612,315L626,331L655,319L644,287L642,286L632,286Z"
  fill="rgb(255, 229, 228)"
  stroke="rgb(255, 229, 228)"
/>
<path
  d="M761,301L768,333L808,313L781,282Z"
  fill="rgb(255, 181, 192)"
  stroke="rgb(255, 181, 192)"
/>
<path
  d="M735,272L735,293L761,301L781,282L782,265L742,264Z"
  fill="rgb(255, 192, 206)"
  stroke="rgb(255, 192, 206)"
/>
<path
  d="M700,260L735,272L742,264L740,237L724,231L703,246Z"
  fill="rgb(255, 204, 221)"
  stroke="rgb(255, 204, 221)"
/>
<path
  d="M828,457L842,482L864,468L858,434L851,431Z"
  fill="rgb(226, 129, 121)"
  stroke="rgb(226, 129, 121)"
/>
<path
  d="M844,190L847,201L887,214L889,172L853,175Z"
  fill="rgb(231, 142, 180)"
  stroke="rgb(231, 142, 180)"
/>
<path
  d="M678,469L710,489L728,468L709,442L686,448Z"
  fill="rgb(253, 182, 160)"
  stroke="rgb(253, 182, 160)"
/>
<path
  d="M883,501L886,476L864,468L842,482L836,501Z"
  fill="rgb(213, 112, 102)"
  stroke="rgb(213, 112, 102)"
/>
<path
  d="M604,266L632,286L642,286L653,244L651,238L635,229L621,235Z"
  fill="rgb(255, 232, 240)"
  stroke="rgb(255, 232, 240)"
/>
<path
  d="M651,238L653,244L691,268L700,260L703,246L684,218Z"
  fill="rgb(255, 219, 234)"
  stroke="rgb(255, 219, 234)"
/>
<path
  d="M877,430L894,441L913,435L923,404L891,396Z"
  fill="rgb(216, 110, 114)"
  stroke="rgb(216, 110, 114)"
/>
<path
  d="M701,341L705,365L723,375L742,339L719,321Z"
  fill="rgb(255, 200, 199)"
  stroke="rgb(255, 200, 199)"
/>
<path
  d="M761,223L783,264L803,256L809,225L795,208L779,207L764,215Z"
  fill="rgb(255, 181, 206)"
  stroke="rgb(255, 181, 206)"
/>
<path
  d="M584,207L587,218L621,235L635,229L635,212L606,185Z"
  fill="rgb(255, 237, 253)"
  stroke="rgb(255, 237, 253)"
/>
<path
  d="M719,208L724,231L740,237L761,223L764,215L732,192Z"
  fill="rgb(255, 200, 224)"
  stroke="rgb(255, 200, 224)"
/>
<path
  d="M803,256L831,271L847,239L836,221L809,225Z"
  fill="rgb(247, 163, 189)"
  stroke="rgb(247, 163, 189)"
/>
<path
  d="M913,435L933,456L936,456L961,438L961,420L924,404L923,404Z"
  fill="rgb(201, 89, 96)"
  stroke="rgb(201, 89, 96)"
/>
<path
  d="M924,404L961,420L961,370L936,370Z"
  fill="rgb(200, 85, 101)"
  stroke="rgb(200, 85, 101)"
/>
<path
  d="M529,303L533,342L544,351L575,335L576,330L544,297L533,299Z"
  fill="rgb(255, 245, 236)"
  stroke="rgb(255, 245, 236)"
/>
<path
  d="M539,208L553,248L571,244L587,218L584,207L554,195Z"
  fill="rgb(255, 245, 255)"
  stroke="rgb(255, 245, 255)"
/>
<path
  d="M660,361L679,376L705,365L701,341L669,335Z"
  fill="rgb(255, 210, 206)"
  stroke="rgb(255, 210, 206)"
/>
<path
  d="M892,472L913,475L933,456L913,435L894,441Z"
  fill="rgb(206, 98, 98)"
  stroke="rgb(206, 98, 98)"
/>
<path
  d="M482,282L497,313L529,303L533,299L508,263L486,272Z"
  fill="rgb(255, 252, 245)"
  stroke="rgb(255, 252, 245)"
/>
<path
  d="M767,163L779,207L795,208L812,182L809,173L780,157L767,162Z"
  fill="rgb(249, 178, 212)"
  stroke="rgb(249, 178, 212)"
/>
<path
  d="M710,489L713,501L751,501L754,467L728,468Z"
  fill="rgb(245, 168, 144)"
  stroke="rgb(245, 168, 144)"
/>
<path
  d="M854,382L887,390L901,354L887,337L882,336L857,357Z"
  fill="rgb(231, 130, 140)"
  stroke="rgb(231, 130, 140)"
/>
<path
  d="M887,390L891,396L923,404L924,404L936,370L927,358L901,354Z"
  fill="rgb(218, 111, 123)"
  stroke="rgb(218, 111, 123)"
/>
<path
  d="M635,229L651,238L684,218L687,209L681,194L649,195L635,212Z"
  fill="rgb(255, 223, 243)"
  stroke="rgb(255, 223, 243)"
/>
<path
  d="M586,285L592,314L612,315L632,286L604,266L602,267Z"
  fill="rgb(255, 236, 236)"
  stroke="rgb(255, 236, 236)"
/>
<path
  d="M531,472L551,485L578,472L578,445L549,436Z"
  fill="rgb(255, 219, 185)"
  stroke="rgb(255, 219, 185)"
/>
<path
  d="M923,501L913,475L892,472L886,476L883,501Z"
  fill="rgb(199, 92, 86)"
  stroke="rgb(199, 92, 86)"
/>
<path
  d="M493,363L515,386L541,366L544,351L533,342L508,342Z"
  fill="rgb(255, 244, 227)"
  stroke="rgb(255, 244, 227)"
/>
<path
  d="M508,263L533,299L544,297L557,281L552,250L511,259Z"
  fill="rgb(255, 249, 249)"
  stroke="rgb(255, 249, 249)"
/>
<path
  d="M489,416L496,435L546,431L545,418L514,391Z"
  fill="rgb(255, 234, 206)"
  stroke="rgb(255, 234, 206)"
/>
<path
  d="M514,391L545,418L566,391L541,366L515,386Z"
  fill="rgb(255, 236, 214)"
  stroke="rgb(255, 236, 214)"
/>
<path
  d="M936,456L961,500L961,438Z"
  fill="rgb(183, 65, 72)"
  stroke="rgb(183, 65, 72)"
/>
<path
  d="M713,501L710,489L678,469L675,471L660,501Z"
  fill="rgb(248, 180, 150)"
  stroke="rgb(248, 180, 150)"
/>
<path
  d="M640,501L622,474L593,489L592,501Z"
  fill="rgb(251, 199, 164)"
  stroke="rgb(251, 199, 164)"
/>
<path
  d="M571,244L602,267L604,266L621,235L587,218Z"
  fill="rgb(255, 240, 250)"
  stroke="rgb(255, 240, 250)"
/>
<path
  d="M581,390L590,435L621,416L623,410L594,381Z"
  fill="rgb(255, 223, 202)"
  stroke="rgb(255, 223, 202)"
/>
<path
  d="M467,400L474,411L489,416L514,391L515,386L493,363L477,363Z"
  fill="rgb(255, 243, 218)"
  stroke="rgb(255, 243, 218)"
/>
<path
  d="M913,475L923,501L961,501L961,500L936,456L933,456Z"
  fill="rgb(191, 78, 78)"
  stroke="rgb(191, 78, 78)"
/>
<path
  d="M552,250L557,281L586,285L602,267L571,244L553,248Z"
  fill="rgb(255, 244, 247)"
  stroke="rgb(255, 244, 247)"
/>
<path
  d="M740,237L742,264L782,265L783,264L761,223Z"
  fill="rgb(255, 192, 212)"
  stroke="rgb(255, 192, 212)"
/>
<path
  d="M442,436L445,453L468,468L475,467L493,450L496,435L489,416L474,411Z"
  fill="rgb(247, 234, 198)"
  stroke="rgb(247, 234, 198)"
/>
<path
  d="M583,155L606,184L640,157L638,152L633,146L591,142Z"
  fill="rgb(255, 233, 255)"
  stroke="rgb(255, 233, 255)"
/>
<path
  d="M493,450L527,473L531,472L549,436L546,431L496,435Z"
  fill="rgb(254, 227, 194)"
  stroke="rgb(254, 227, 194)"
/>
<path
  d="M866,310L882,336L887,337L920,310L920,291L905,284L867,303Z"
  fill="rgb(228, 127, 148)"
  stroke="rgb(228, 127, 148)"
/>
<path
  d="M554,195L584,207L606,185L606,184L583,155L565,161L554,174Z"
  fill="rgb(255, 241, 255)"
  stroke="rgb(255, 241, 255)"
/>
<path
  d="M475,467L497,501L511,501L527,473L493,450Z"
  fill="rgb(246, 222, 182)"
  stroke="rgb(246, 222, 182)"
/>
<path
  d="M795,208L809,225L836,221L847,201L844,190L812,182Z"
  fill="rgb(245, 164, 197)"
  stroke="rgb(245, 164, 197)"
/>
<path
  d="M920,291L920,310L938,329L961,327L961,286L931,284Z"
  fill="rgb(209, 98, 125)"
  stroke="rgb(209, 98, 125)"
/>
<path
  d="M416,474L420,501L450,501L468,468L445,453Z"
  fill="rgb(234, 225, 180)"
  stroke="rgb(234, 225, 180)"
/>
<path
  d="M887,337L901,354L927,358L938,329L920,310Z"
  fill="rgb(219, 113, 132)"
  stroke="rgb(219, 113, 132)"
/>
<path
  d="M606,185L635,212L649,195L641,159L640,157L606,184Z"
  fill="rgb(255, 230, 252)"
  stroke="rgb(255, 230, 252)"
/>
<path
  d="M681,194L687,209L719,208L732,192L732,183L718,170L716,170L683,190Z"
  fill="rgb(255, 209, 235)"
  stroke="rgb(255, 209, 235)"
/>
<path
  d="M887,214L889,216L894,219L936,195L936,194L928,176L893,168L889,172Z"
  fill="rgb(218, 120, 163)"
  stroke="rgb(218, 120, 163)"
/>
<path
  d="M504,220L511,259L552,250L553,248L539,208L520,209Z"
  fill="rgb(255, 250, 255)"
  stroke="rgb(255, 250, 255)"
/>
<path
  d="M854,283L867,303L905,284L896,265L874,261Z"
  fill="rgb(234, 136, 162)"
  stroke="rgb(234, 136, 162)"
/>
<path
  d="M472,329L477,363L477,363L493,363L508,342L494,319Z"
  fill="rgb(255, 249, 232)"
  stroke="rgb(255, 249, 232)"
/>
<path
  d="M509,177L520,209L539,208L554,195L554,174L521,161Z"
  fill="rgb(255, 249, 255)"
  stroke="rgb(255, 249, 255)"
/>
<path
  d="M638,152L640,157L641,159L672,164L688,146L668,124Z"
  fill="rgb(255, 217, 249)"
  stroke="rgb(255, 217, 249)"
/>
<path
  d="M438,360L441,390L467,400L477,363L477,363Z"
  fill="rgb(251, 246, 221)"
  stroke="rgb(251, 246, 221)"
/>
<path
  d="M927,358L936,370L961,370L961,327L938,329Z"
  fill="rgb(205, 91, 113)"
  stroke="rgb(205, 91, 113)"
/>
<path
  d="M642,286L644,287L687,282L691,268L653,244Z"
  fill="rgb(255, 223, 232)"
  stroke="rgb(255, 223, 232)"
/>
<path
  d="M456,241L486,272L508,263L511,259L504,220L496,218L456,241Z"
  fill="rgb(255, 255, 255)"
  stroke="rgb(255, 255, 255)"
/>
<path
  d="M435,356L438,360L477,363L472,329L449,319L438,325Z"
  fill="rgb(253, 250, 231)"
  stroke="rgb(253, 250, 231)"
/>
<path
  d="M552,501L551,485L531,472L527,473L511,501Z"
  fill="rgb(246, 213, 172)"
  stroke="rgb(246, 213, 172)"
/>
<path
  d="M621,416L638,439L670,422L670,413L641,398L623,410Z"
  fill="rgb(255, 211, 192)"
  stroke="rgb(255, 211, 192)"
/>
<path
  d="M589,120L591,142L633,146L627,110L617,105L597,110Z"
  fill="rgb(252, 229, 255)"
  stroke="rgb(252, 229, 255)"
/>
<path
  d="M427,264L428,266L457,294L482,282L486,272L456,241L432,255Z"
  fill="rgb(252, 255, 250)"
  stroke="rgb(252, 255, 250)"
/>
<path
  d="M548,134L565,161L583,155L591,142L589,120L559,113Z"
  fill="rgb(250, 238, 255)"
  stroke="rgb(250, 238, 255)"
/>
<path
  d="M392,374L404,395L426,401L441,390L438,360L435,356L394,367Z"
  fill="rgb(243, 246, 218)"
  stroke="rgb(243, 246, 218)"
/>
<path
  d="M426,401L433,430L442,436L474,411L467,400L441,390Z"
  fill="rgb(245, 240, 208)"
  stroke="rgb(245, 240, 208)"
/>
<path
  d="M385,249L391,258L427,264L432,255L403,213L401,214Z"
  fill="rgb(235, 255, 253)"
  stroke="rgb(235, 255, 253)"
/>
<path
  d="M931,284L961,286L961,239L943,237L933,243Z"
  fill="rgb(208, 98, 134)"
  stroke="rgb(208, 98, 134)"
/>
<path
  d="M479,196L496,218L504,220L520,209L509,177L487,175Z"
  fill="rgb(251, 252, 255)"
  stroke="rgb(251, 252, 255)"
/>
<path
  d="M684,218L703,246L724,231L719,208L687,209Z"
  fill="rgb(255, 210, 231)"
  stroke="rgb(255, 210, 231)"
/>
<path
  d="M486,122L490,142L519,151L527,136L519,116L489,116Z"
  fill="rgb(241, 246, 255)"
  stroke="rgb(241, 246, 255)"
/>
<path
  d="M385,344L394,367L435,356L438,325L422,318L389,335Z"
  fill="rgb(242, 251, 230)"
  stroke="rgb(242, 251, 230)"
/>
<path
  d="M449,319L472,329L494,319L497,313L482,282L457,294Z"
  fill="rgb(255, 253, 242)"
  stroke="rgb(255, 253, 242)"
/>
<path
  d="M442,129L448,160L478,160L490,142L486,122L444,127Z"
  fill="rgb(235, 250, 255)"
  stroke="rgb(235, 250, 255)"
/>
<path
  d="M690,146L716,170L718,170L736,128L712,122Z"
  fill="rgb(254, 203, 238)"
  stroke="rgb(254, 203, 238)"
/>
<path
  d="M412,296L422,318L438,325L449,319L457,294L428,266Z"
  fill="rgb(247, 255, 244)"
  stroke="rgb(247, 255, 244)"
/>
<path
  d="M641,159L649,195L681,194L683,190L672,164Z"
  fill="rgb(255, 222, 247)"
  stroke="rgb(255, 222, 247)"
/>
<path
  d="M627,110L633,146L638,152L668,124L668,108L662,99Z"
  fill="rgb(252, 220, 254)"
  stroke="rgb(252, 220, 254)"
/>
<path
  d="M390,428L399,436L433,430L426,401L404,395Z"
  fill="rgb(237, 239, 204)"
  stroke="rgb(237, 239, 204)"
/>
<path
  d="M936,195L943,237L961,239L961,193L936,194Z"
  fill="rgb(202, 94, 138)"
  stroke="rgb(202, 94, 138)"
/>
<path
  d="M448,212L456,241L496,218L479,196L457,197Z"
  fill="rgb(249, 255, 255)"
  stroke="rgb(249, 255, 255)"
/>
<path
  d="M672,164L683,190L716,170L690,146L688,146Z"
  fill="rgb(255, 212, 242)"
  stroke="rgb(255, 212, 242)"
/>
<path
  d="M718,170L732,183L767,163L767,162L739,127L736,128Z"
  fill="rgb(253, 195, 230)"
  stroke="rgb(253, 195, 230)"
/>
<path
  d="M617,105L627,110L662,99L663,78L647,61L645,61L620,72Z"
  fill="rgb(242, 218, 255)"
  stroke="rgb(242, 218, 255)"
/>
<path
  d="M894,219L908,237L933,243L943,237L936,195Z"
  fill="rgb(215, 113, 152)"
  stroke="rgb(215, 113, 152)"
/>
<path
  d="M809,173L812,182L844,190L853,175L842,143L828,143Z"
  fill="rgb(237, 158, 197)"
  stroke="rgb(237, 158, 197)"
/>
<path
  d="M338,370L340,375L358,388L392,374L394,367L385,344L353,341Z"
  fill="rgb(226, 246, 218)"
  stroke="rgb(226, 246, 218)"
/>
<path
  d="M551,485L552,501L592,501L593,489L578,472Z"
  fill="rgb(250, 209, 170)"
  stroke="rgb(250, 209, 170)"
/>
<path
  d="M497,501L475,467L468,468L450,501Z"
  fill="rgb(237, 219, 174)"
  stroke="rgb(237, 219, 174)"
/>
<path
  d="M928,176L936,194L961,193L961,144L944,144Z"
  fill="rgb(198, 94, 144)"
  stroke="rgb(198, 94, 144)"
/>
<path
  d="M662,99L668,108L702,108L708,89L692,68L663,78Z"
  fill="rgb(242, 203, 246)"
  stroke="rgb(242, 203, 246)"
/>
<path
  d="M702,108L712,122L736,128L739,127L749,113L736,82L708,89Z"
  fill="rgb(243, 194, 237)"
  stroke="rgb(243, 194, 237)"
/>
<path
  d="M403,213L432,255L456,241L456,241L448,212L416,205L404,211Z"
  fill="rgb(240, 255, 255)"
  stroke="rgb(240, 255, 255)"
/>
<path
  d="M373,295L389,335L422,318L412,296L377,293L373,295Z"
  fill="rgb(237, 253, 236)"
  stroke="rgb(237, 253, 236)"
/>
<path
  d="M357,407L383,428L390,428L404,395L392,374L358,388Z"
  fill="rgb(229, 240, 206)"
  stroke="rgb(229, 240, 206)"
/>
<path
  d="M836,221L847,239L867,240L889,216L887,214L847,201Z"
  fill="rgb(237, 148, 180)"
  stroke="rgb(237, 148, 180)"
/>
<path
  d="M842,143L853,175L889,172L893,168L891,145L865,126L859,127Z"
  fill="rgb(226, 140, 185)"
  stroke="rgb(226, 140, 185)"
/>
<path
  d="M701,49L702,51L741,66L757,53L754,30L719,25Z"
  fill="rgb(225, 182, 235)"
  stroke="rgb(225, 182, 235)"
/>
<path
  d="M519,116L527,136L548,134L559,113L552,101L528,102Z"
  fill="rgb(243, 241, 255)"
  stroke="rgb(243, 241, 255)"
/>
<path
  d="M780,157L809,173L828,143L807,127L792,130Z"
  fill="rgb(241, 169, 209)"
  stroke="rgb(241, 169, 209)"
/>
<path
  d="M739,127L767,162L780,157L792,130L769,110L749,113Z"
  fill="rgb(244, 182, 222)"
  stroke="rgb(244, 182, 222)"
/>
<path
  d="M399,436L402,464L416,474L445,453L442,436L433,430Z"
  fill="rgb(234, 233, 192)"
  stroke="rgb(234, 233, 192)"
/>
<path
  d="M494,319L508,342L533,342L529,303L497,313Z"
  fill="rgb(255, 248, 236)"
  stroke="rgb(255, 248, 236)"
/>
<path
  d="M377,293L412,296L428,266L427,264L391,258Z"
  fill="rgb(237, 255, 245)"
  stroke="rgb(237, 255, 245)"
/>
<path
  d="M707,-1L719,25L754,30L756,24L753,-1Z"
  fill="rgb(213, 173, 232)"
  stroke="rgb(213, 173, 232)"
/>
<path
  d="M340,318L353,341L385,344L389,335L373,295Z"
  fill="rgb(228, 251, 230)"
  stroke="rgb(228, 251, 230)"
/>
<path
  d="M865,126L891,145L924,125L923,110L887,91L885,91Z"
  fill="rgb(210, 121, 174)"
  stroke="rgb(210, 121, 174)"
/>
<path
  d="M736,82L749,113L769,110L784,85L776,63L757,53L741,66Z"
  fill="rgb(234, 178, 226)"
  stroke="rgb(234, 178, 226)"
/>
<path
  d="M584,81L597,110L617,105L620,72L603,65Z"
  fill="rgb(240, 224, 255)"
  stroke="rgb(240, 224, 255)"
/>
<path
  d="M891,145L893,168L928,176L944,144L924,125Z"
  fill="rgb(209, 113, 162)"
  stroke="rgb(209, 113, 162)"
/>
<path
  d="M668,124L688,146L690,146L712,122L702,108L668,108Z"
  fill="rgb(251, 208, 245)"
  stroke="rgb(251, 208, 245)"
/>
<path
  d="M647,61L663,78L692,68L702,51L701,49L678,29L665,30Z"
  fill="rgb(231, 199, 248)"
  stroke="rgb(231, 199, 248)"
/>
<path
  d="M347,266L373,295L377,293L391,258L385,249L358,245L352,248Z"
  fill="rgb(226, 254, 245)"
  stroke="rgb(226, 254, 245)"
/>
<path
  d="M754,30L757,53L776,63L801,49L803,30L791,18L756,24Z"
  fill="rgb(215, 159, 217)"
  stroke="rgb(215, 159, 217)"
/>
<path
  d="M310,355L338,370L353,341L340,318L339,318L320,325Z"
  fill="rgb(214, 245, 218)"
  stroke="rgb(214, 245, 218)"
/>
<path
  d="M321,279L339,318L340,318L373,295L373,295L347,266L322,278Z"
  fill="rgb(218, 251, 235)"
  stroke="rgb(218, 251, 235)"
/>
<path
  d="M518,83L528,102L552,101L562,76L557,67L527,66Z"
  fill="rgb(233, 235, 255)"
  stroke="rgb(233, 235, 255)"
/>
<path
  d="M298,289L300,316L320,325L339,318L321,279Z"
  fill="rgb(208, 247, 227)"
  stroke="rgb(208, 247, 227)"
/>
<path
  d="M351,196L365,213L401,214L403,213L404,211L383,175L357,181Z"
  fill="rgb(220, 254, 255)"
  stroke="rgb(220, 254, 255)"
/>
<path
  d="M339,423L352,455L359,455L383,428L357,407Z"
  fill="rgb(218, 234, 193)"
  stroke="rgb(218, 234, 193)"
/>
<path
  d="M732,183L732,192L764,215L779,207L767,163Z"
  fill="rgb(255, 190, 221)"
  stroke="rgb(255, 190, 221)"
/>
<path
  d="M769,110L792,130L807,127L818,94L784,85Z"
  fill="rgb(233, 168, 215)"
  stroke="rgb(233, 168, 215)"
/>
<path
  d="M307,405L318,421L339,423L357,407L358,388L340,375Z"
  fill="rgb(213, 237, 200)"
  stroke="rgb(213, 237, 200)"
/>
<path
  d="M801,49L822,61L839,48L837,26L826,20L803,30Z"
  fill="rgb(209, 144, 204)"
  stroke="rgb(209, 144, 204)"
/>
<path
  d="M288,363L298,401L307,405L340,375L338,370L310,355L288,362Z"
  fill="rgb(206, 238, 205)"
  stroke="rgb(206, 238, 205)"
/>
<path
  d="M594,39L603,65L620,72L645,61L623,34Z"
  fill="rgb(230, 215, 255)"
  stroke="rgb(230, 215, 255)"
/>
<path
  d="M416,205L448,212L457,197L445,166L426,173Z"
  fill="rgb(238, 255, 255)"
  stroke="rgb(238, 255, 255)"
/>
<path
  d="M543,-1L544,21L565,42L590,36L594,-1Z"
  fill="rgb(214, 215, 255)"
  stroke="rgb(214, 215, 255)"
/>
<path
  d="M807,127L828,143L842,143L859,127L828,91L825,90L818,94Z"
  fill="rgb(228, 154, 201)"
  stroke="rgb(228, 154, 201)"
/>
<path
  d="M776,63L784,85L818,94L825,90L822,61L801,49Z"
  fill="rgb(222, 158, 211)"
  stroke="rgb(222, 158, 211)"
/>
<path
  d="M383,175L404,211L416,205L426,173L396,157Z"
  fill="rgb(226, 254, 255)"
  stroke="rgb(226, 254, 255)"
/>
<path
  d="M324,228L352,248L358,245L365,213L351,196L331,204Z"
  fill="rgb(213, 252, 249)"
  stroke="rgb(213, 252, 249)"
/>
<path
  d="M828,91L859,127L865,126L885,91L868,74Z"
  fill="rgb(217, 138, 192)"
  stroke="rgb(217, 138, 192)"
/>
<path
  d="M678,29L701,49L719,25L707,-1L696,-1Z"
  fill="rgb(220, 186, 241)"
  stroke="rgb(220, 186, 241)"
/>
<path
  d="M623,34L645,61L647,61L665,30L640,-0L637,-1Z"
  fill="rgb(224, 205, 254)"
  stroke="rgb(224, 205, 254)"
/>
<path
  d="M273,414L284,450L292,454L308,447L318,421L307,405L298,401Z"
  fill="rgb(194, 226, 183)"
  stroke="rgb(194, 226, 183)"
/>
<path
  d="M692,68L708,89L736,82L741,66L702,51Z"
  fill="rgb(235, 192, 239)"
  stroke="rgb(235, 192, 239)"
/>
<path
  d="M252,377L256,411L273,414L298,401L288,363Z"
  fill="rgb(188, 230, 193)"
  stroke="rgb(188, 230, 193)"
/>
<path
  d="M359,455L380,471L402,464L399,436L390,428L383,428Z"
  fill="rgb(223, 230, 187)"
  stroke="rgb(223, 230, 187)"
/>
<path
  d="M445,166L457,197L479,196L487,175L478,160L448,160Z"
  fill="rgb(243, 253, 255)"
  stroke="rgb(243, 253, 255)"
/>
<path
  d="M373,501L380,471L359,455L352,455L337,468L332,501Z"
  fill="rgb(212, 223, 174)"
  stroke="rgb(212, 223, 174)"
/>
<path
  d="M247,460L261,494L292,479L292,454L284,450Z"
  fill="rgb(179, 213, 161)"
  stroke="rgb(179, 213, 161)"
/>
<path
  d="M292,479L319,501L332,501L337,468L308,447L292,454Z"
  fill="rgb(195, 219, 169)"
  stroke="rgb(195, 219, 169)"
/>
<path
  d="M923,110L924,125L944,144L961,144L961,100L927,106Z"
  fill="rgb(189, 89, 148)"
  stroke="rgb(189, 89, 148)"
/>
<path
  d="M519,151L521,161L554,174L565,161L548,134L527,136Z"
  fill="rgb(250, 244, 255)"
  stroke="rgb(250, 244, 255)"
/>
<path
  d="M927,106L961,100L961,61L960,61L932,72Z"
  fill="rgb(184, 88, 151)"
  stroke="rgb(184, 88, 151)"
/>
<path
  d="M273,331L288,362L310,355L320,325L300,316Z"
  fill="rgb(202, 242, 215)"
  stroke="rgb(202, 242, 215)"
/>
<path
  d="M308,447L337,468L352,455L339,423L318,421Z"
  fill="rgb(207, 228, 184)"
  stroke="rgb(207, 228, 184)"
/>
<path
  d="M867,58L868,74L885,91L887,91L912,61L908,41L878,42Z"
  fill="rgb(197, 114, 176)"
  stroke="rgb(197, 114, 176)"
/>
<path
  d="M395,147L396,157L426,173L445,166L448,160L442,129L432,127Z"
  fill="rgb(225, 252, 255)"
  stroke="rgb(225, 252, 255)"
/>
<path
  d="M231,342L241,370L252,377L288,363L288,362L273,331L272,330L232,341Z"
  fill="rgb(183, 233, 201)"
  stroke="rgb(183, 233, 201)"
/>
<path
  d="M908,41L912,61L932,72L960,61L931,28L918,27Z"
  fill="rgb(181, 90, 157)"
  stroke="rgb(181, 90, 157)"
/>
<path
  d="M305,244L322,278L347,266L352,248L324,228L308,236Z"
  fill="rgb(209, 250, 241)"
  stroke="rgb(209, 250, 241)"
/>
<path
  d="M866,12L878,42L908,41L918,27L907,-1L870,-1Z"
  fill="rgb(185, 106, 174)"
  stroke="rgb(185, 106, 174)"
/>
<path
  d="M358,245L385,249L401,214L365,213Z"
  fill="rgb(225, 255, 252)"
  stroke="rgb(225, 255, 252)"
/>
<path
  d="M262,296L272,330L273,331L300,316L298,289L285,284Z"
  fill="rgb(194, 242, 220)"
  stroke="rgb(194, 242, 220)"
/>
<path
  d="M823,-1L826,20L837,26L866,12L870,-1Z"
  fill="rgb(193, 127, 194)"
  stroke="rgb(193, 127, 194)"
/>
<path
  d="M309,170L311,190L331,204L351,196L357,181L344,158L334,156Z"
  fill="rgb(198, 248, 252)"
  stroke="rgb(198, 248, 252)"
/>
<path
  d="M280,256L285,284L298,289L321,279L322,278L305,244Z"
  fill="rgb(198, 246, 232)"
  stroke="rgb(198, 246, 232)"
/>
<path
  d="M420,501L416,474L402,464L380,471L373,501Z"
  fill="rgb(220, 222, 174)"
  stroke="rgb(220, 222, 174)"
/>
<path
  d="M552,101L559,113L589,120L597,110L584,81L562,76Z"
  fill="rgb(242, 232, 255)"
  stroke="rgb(242, 232, 255)"
/>
<path
  d="M344,158L357,181L383,175L396,157L395,147L379,130L365,130Z"
  fill="rgb(209, 250, 255)"
  stroke="rgb(209, 250, 255)"
/>
<path
  d="M444,127L486,122L489,116L485,91L450,82Z"
  fill="rgb(226, 245, 255)"
  stroke="rgb(226, 245, 255)"
/>
<path
  d="M485,91L489,116L519,116L528,102L518,83L493,83Z"
  fill="rgb(233, 241, 255)"
  stroke="rgb(233, 241, 255)"
/>
<path
  d="M837,26L839,48L867,58L878,42L866,12Z"
  fill="rgb(200, 128, 190)"
  stroke="rgb(200, 128, 190)"
/>
<path
  d="M491,55L493,83L518,83L527,66L515,44L509,43Z"
  fill="rgb(222, 235, 255)"
  stroke="rgb(222, 235, 255)"
/>
<path
  d="M232,341L272,330L262,296L262,295L234,305Z"
  fill="rgb(178, 234, 209)"
  stroke="rgb(178, 234, 209)"
/>
<path
  d="M515,44L527,66L557,67L565,42L544,21Z"
  fill="rgb(222, 228, 255)"
  stroke="rgb(222, 228, 255)"
/>
<path
  d="M590,36L594,39L623,34L637,-1L594,-1Z"
  fill="rgb(219, 209, 255)"
  stroke="rgb(219, 209, 255)"
/>
<path
  d="M379,130L395,147L432,127L404,99L392,104Z"
  fill="rgb(214, 248, 255)"
  stroke="rgb(214, 248, 255)"
/>
<path
  d="M166,338L192,360L219,342L191,308L170,322Z"
  fill="rgb(148, 219, 187)"
  stroke="rgb(148, 219, 187)"
/>
<path
  d="M284,155L309,170L334,156L313,120L294,126Z"
  fill="rgb(184, 243, 252)"
  stroke="rgb(184, 243, 252)"
/>
<path
  d="M188,284L195,297L218,293L233,263L221,244L219,244L201,251Z"
  fill="rgb(154, 228, 208)"
  stroke="rgb(154, 228, 208)"
/>
<path
  d="M286,214L308,236L324,228L331,204L311,190L286,204Z"
  fill="rgb(194, 247, 244)"
  stroke="rgb(194, 247, 244)"
/>
<path
  d="M197,438L240,459L244,458L247,417L225,414Z"
  fill="rgb(163, 212, 164)"
  stroke="rgb(163, 212, 164)"
/>
<path
  d="M344,109L365,130L379,130L392,104L363,80L357,80Z"
  fill="rgb(194, 243, 255)"
  stroke="rgb(194, 243, 255)"
/>
<path
  d="M640,-0L665,30L678,29L696,-1Z"
  fill="rgb(215, 190, 246)"
  stroke="rgb(215, 190, 246)"
/>
<path
  d="M240,119L251,154L272,161L284,155L294,126L278,113L242,116Z"
  fill="rgb(158, 234, 243)"
  stroke="rgb(158, 234, 243)"
/>
<path
  d="M246,266L262,295L262,296L285,284L280,256L270,251Z"
  fill="rgb(184, 240, 224)"
  stroke="rgb(184, 240, 224)"
/>
<path
  d="M214,390L225,414L247,417L256,411L252,377L241,370Z"
  fill="rgb(170, 221, 181)"
  stroke="rgb(170, 221, 181)"
/>
<path
  d="M202,150L207,160L233,166L251,154L240,119L212,121Z"
  fill="rgb(139, 227, 231)"
  stroke="rgb(139, 227, 231)"
/>
<path
  d="M557,67L562,76L584,81L603,65L594,39L590,36L565,42Z"
  fill="rgb(232, 224, 255)"
  stroke="rgb(232, 224, 255)"
/>
<path
  d="M221,244L233,263L246,266L270,251L263,228L253,224Z"
  fill="rgb(173, 238, 225)"
  stroke="rgb(173, 238, 225)"
/>
<path
  d="M233,166L234,195L245,200L270,187L272,161L251,154Z"
  fill="rgb(161, 235, 234)"
  stroke="rgb(161, 235, 234)"
/>
<path
  d="M215,483L222,501L259,501L261,494L247,460L244,458L240,459Z"
  fill="rgb(159, 202, 146)"
  stroke="rgb(159, 202, 146)"
/>
<path
  d="M907,-1L918,27L931,28L961,5L961,-1Z"
  fill="rgb(164, 78, 152)"
  stroke="rgb(164, 78, 152)"
/>
<path
  d="M245,200L253,224L263,228L286,214L286,204L270,187Z"
  fill="rgb(174, 240, 235)"
  stroke="rgb(174, 240, 235)"
/>
<path
  d="M753,-1L756,24L791,18L795,-1Z"
  fill="rgb(205, 154, 216)"
  stroke="rgb(205, 154, 216)"
/>
<path
  d="M497,20L509,43L515,44L544,21L543,-1L507,-1Z"
  fill="rgb(208, 224, 255)"
  stroke="rgb(208, 224, 255)"
/>
<path
  d="M313,120L334,156L344,158L365,130L344,109L319,112Z"
  fill="rgb(191, 245, 255)"
  stroke="rgb(191, 245, 255)"
/>
<path
  d="M244,458L247,460L284,450L273,414L256,411L247,417Z"
  fill="rgb(180, 219, 172)"
  stroke="rgb(180, 219, 172)"
/>
<path
  d="M270,187L286,204L311,190L309,170L284,155L272,161Z"
  fill="rgb(182, 243, 244)"
  stroke="rgb(182, 243, 244)"
/>
<path
  d="M449,81L450,82L485,91L493,83L491,55L466,46Z"
  fill="rgb(216, 238, 255)"
  stroke="rgb(216, 238, 255)"
/>
<path
  d="M198,183L213,204L234,195L233,166L207,160Z"
  fill="rgb(142, 228, 225)"
  stroke="rgb(142, 228, 225)"
/>
<path
  d="M172,239L201,251L219,244L209,214L173,217Z"
  fill="rgb(138, 223, 210)"
  stroke="rgb(138, 223, 210)"
/>
<path
  d="M191,308L219,342L231,342L232,341L234,305L218,293L195,297Z"
  fill="rgb(162, 227, 200)"
  stroke="rgb(162, 227, 200)"
/>
<path
  d="M478,160L487,175L509,177L521,161L519,151L490,142Z"
  fill="rgb(246, 250, 255)"
  stroke="rgb(246, 250, 255)"
/>
<path
  d="M263,228L270,251L280,256L305,244L308,236L286,214Z"
  fill="rgb(187, 244, 235)"
  stroke="rgb(187, 244, 235)"
/>
<path
  d="M154,471L180,488L199,477L196,438L184,433L155,450Z"
  fill="rgb(135, 193, 139)"
  stroke="rgb(135, 193, 139)"
/>
<path
  d="M319,501L292,479L261,494L259,501Z"
  fill="rgb(180, 208, 152)"
  stroke="rgb(180, 208, 152)"
/>
<path
  d="M242,116L278,113L281,69L280,68L279,68L243,89Z"
  fill="rgb(144, 228, 243)"
  stroke="rgb(144, 228, 243)"
/>
<path
  d="M134,423L141,441L155,450L184,433L174,395L153,390Z"
  fill="rgb(124, 195, 147)"
  stroke="rgb(124, 195, 147)"
/>
<path
  d="M174,395L184,433L196,438L197,438L225,414L214,390L190,382Z"
  fill="rgb(152, 211, 167)"
  stroke="rgb(152, 211, 167)"
/>
<path
  d="M104,475L140,484L154,471L155,450L141,441L105,455Z"
  fill="rgb(103, 177, 121)"
  stroke="rgb(103, 177, 121)"
/>
<path
  d="M190,382L214,390L241,370L231,342L219,342L192,360Z"
  fill="rgb(161, 221, 184)"
  stroke="rgb(161, 221, 184)"
/>
<path
  d="M143,380L153,390L174,395L190,382L192,360L166,338L149,347Z"
  fill="rgb(134, 208, 170)"
  stroke="rgb(134, 208, 170)"
/>
<path
  d="M161,158L178,185L198,183L207,160L202,150L163,151Z"
  fill="rgb(120, 218, 217)"
  stroke="rgb(120, 218, 217)"
/>
<path
  d="M404,99L432,127L442,129L444,127L450,82L449,81L445,80L406,95Z"
  fill="rgb(214, 245, 255)"
  stroke="rgb(214, 245, 255)"
/>
<path
  d="M119,330L149,347L166,338L170,322L138,296L134,297Z"
  fill="rgb(118, 205, 174)"
  stroke="rgb(118, 205, 174)"
/>
<path
  d="M278,113L294,126L313,120L319,112L308,74L281,69Z"
  fill="rgb(161, 234, 250)"
  stroke="rgb(161, 234, 250)"
/>
<path
  d="M209,214L219,244L221,244L253,224L245,200L234,195L213,204Z"
  fill="rgb(159, 233, 225)"
  stroke="rgb(159, 233, 225)"
/>
<path
  d="M198,87L201,110L212,121L240,119L242,116L243,89L223,69L210,69Z"
  fill="rgb(119, 219, 232)"
  stroke="rgb(119, 219, 232)"
/>
<path
  d="M180,488L180,501L222,501L215,483L199,477Z"
  fill="rgb(140, 190, 131)"
  stroke="rgb(140, 190, 131)"
/>
<path
  d="M96,404L100,412L134,423L153,390L143,380L113,380Z"
  fill="rgb(107, 188, 143)"
  stroke="rgb(107, 188, 143)"
/>
<path
  d="M420,38L420,51L445,80L449,81L466,46L465,45L432,29L426,30Z"
  fill="rgb(202, 235, 255)"
  stroke="rgb(202, 235, 255)"
/>
<path
  d="M308,74L319,112L344,109L357,80L342,64L326,62Z"
  fill="rgb(175, 237, 255)"
  stroke="rgb(175, 237, 255)"
/>
<path
  d="M138,296L170,322L191,308L195,297L188,284L164,275Z"
  fill="rgb(130, 214, 188)"
  stroke="rgb(130, 214, 188)"
/>
<path
  d="M101,355L113,380L143,380L149,347L119,330L115,332Z"
  fill="rgb(107, 195, 158)"
  stroke="rgb(107, 195, 158)"
/>
<path
  d="M155,136L163,151L202,150L212,121L201,110L158,122L156,125Z"
  fill="rgb(108, 214, 219)"
  stroke="rgb(108, 214, 219)"
/>
<path
  d="M382,32L420,38L426,30L410,-1L385,-1Z"
  fill="rgb(177, 227, 255)"
  stroke="rgb(177, 227, 255)"
/>
<path
  d="M931,28L960,61L961,61L961,5Z"
  fill="rgb(165, 72, 144)"
  stroke="rgb(165, 72, 144)"
/>
<path
  d="M280,68L281,69L308,74L326,62L317,26L289,22Z"
  fill="rgb(147, 226, 252)"
  stroke="rgb(147, 226, 252)"
/>
<path
  d="M158,251L164,275L188,284L201,251L172,239Z"
  fill="rgb(135, 220, 201)"
  stroke="rgb(135, 220, 201)"
/>
<path
  d="M791,18L803,30L826,20L823,-1L795,-1Z"
  fill="rgb(202, 143, 206)"
  stroke="rgb(202, 143, 206)"
/>
<path
  d="M119,282L134,297L138,296L164,275L158,251L132,244L119,251Z"
  fill="rgb(111, 207, 186)"
  stroke="rgb(111, 207, 186)"
/>
<path
  d="M100,501L103,476L71,477L61,501Z"
  fill="rgb(68, 153, 92)"
  stroke="rgb(68, 153, 92)"
/>
<path
  d="M132,244L158,251L172,239L173,217L166,207L138,204Z"
  fill="rgb(111, 211, 197)"
  stroke="rgb(111, 211, 197)"
/>
<path
  d="M103,120L119,147L155,136L156,125L115,104L105,109Z"
  fill="rgb(49, 194, 197)"
  stroke="rgb(49, 194, 197)"
/>
<path
  d="M196,438L199,477L215,483L240,459L197,438Z"
  fill="rgb(152, 202, 149)"
  stroke="rgb(152, 202, 149)"
/>
<path
  d="M134,199L138,204L166,207L178,185L161,158L136,183Z"
  fill="rgb(105, 211, 205)"
  stroke="rgb(105, 211, 205)"
/>
<path
  d="M113,159L136,183L161,158L163,151L155,136L119,147Z"
  fill="rgb(77, 201, 199)"
  stroke="rgb(77, 201, 199)"
/>
<path
  d="M69,264L72,272L97,289L119,282L119,251L108,246Z"
  fill="rgb(74, 191, 168)"
  stroke="rgb(74, 191, 168)"
/>
<path
  d="M91,215L108,246L119,251L132,244L138,204L134,199L102,203Z"
  fill="rgb(83, 199, 185)"
  stroke="rgb(83, 199, 185)"
/>
<path
  d="M88,313L115,332L119,330L134,297L119,282L97,289Z"
  fill="rgb(89, 193, 164)"
  stroke="rgb(89, 193, 164)"
/>
<path
  d="M30,294L44,305L57,302L72,272L69,264L69,264L31,270Z"
  fill="rgb(11, 171, 145)"
  stroke="rgb(11, 171, 145)"
/>
<path
  d="M822,61L825,90L828,91L868,74L867,58L839,48Z"
  fill="rgb(212, 139, 196)"
  stroke="rgb(212, 139, 196)"
/>
<path
  d="M379,35L383,63L401,69L420,51L420,38L382,32Z"
  fill="rgb(188, 235, 255)"
  stroke="rgb(188, 235, 255)"
/>
<path
  d="M59,423L69,446L96,443L100,412L96,404L92,403Z"
  fill="rgb(71, 166, 115)"
  stroke="rgb(71, 166, 115)"
/>
<path
  d="M223,69L243,89L279,68L245,46Z"
  fill="rgb(125, 220, 239)"
  stroke="rgb(125, 220, 239)"
/>
<path
  d="M94,166L102,203L134,199L136,183L113,159Z"
  fill="rgb(63, 195, 188)"
  stroke="rgb(63, 195, 188)"
/>
<path
  d="M27,469L31,501L61,501L71,477L60,460L34,461Z"
  fill="rgb(41, 143, 85)"
  stroke="rgb(41, 143, 85)"
/>
<path
  d="M199,49L210,69L223,69L245,46L243,29L239,25L216,22Z"
  fill="rgb(97, 209, 231)"
  stroke="rgb(97, 209, 231)"
/>
<path
  d="M42,154L47,177L53,180L86,164L79,138L61,130Z"
  fill="rgb(0, 174, 170)"
  stroke="rgb(0, 174, 170)"
/>
<path
  d="M156,77L158,79L198,87L210,69L199,49L180,44Z"
  fill="rgb(76, 203, 219)"
  stroke="rgb(76, 203, 219)"
/>
<path
  d="M243,29L245,46L279,68L280,68L289,22L288,21Z"
  fill="rgb(124, 218, 243)"
  stroke="rgb(124, 218, 243)"
/>
<path
  d="M115,104L156,125L158,122L158,79L156,77L145,73L126,81Z"
  fill="rgb(50, 196, 204)"
  stroke="rgb(50, 196, 204)"
/>
<path
  d="M36,339L37,341L66,350L78,316L57,302L44,305Z"
  fill="rgb(45, 173, 139)"
  stroke="rgb(45, 173, 139)"
/>
<path
  d="M66,350L69,353L101,355L115,332L88,313L78,316Z"
  fill="rgb(77, 184, 149)"
  stroke="rgb(77, 184, 149)"
/>
<path
  d="M342,64L357,80L363,80L383,63L379,35L359,36Z"
  fill="rgb(178, 234, 255)"
  stroke="rgb(178, 234, 255)"
/>
<path
  d="M432,29L465,45L475,21L461,-1L455,-1Z"
  fill="rgb(195, 229, 255)"
  stroke="rgb(195, 229, 255)"
/>
<path
  d="M62,242L69,264L69,264L108,246L91,215L85,215Z"
  fill="rgb(53, 186, 167)"
  stroke="rgb(53, 186, 167)"
/>
<path
  d="M218,293L234,305L262,295L246,266L233,263Z"
  fill="rgb(171, 234, 213)"
  stroke="rgb(171, 234, 213)"
/>
<path
  d="M180,501L180,488L154,471L140,484L139,501Z"
  fill="rgb(117, 178, 117)"
  stroke="rgb(117, 178, 117)"
/>
<path
  d="M25,378L29,387L44,391L65,380L69,353L66,350L37,341Z"
  fill="rgb(35, 162, 121)"
  stroke="rgb(35, 162, 121)"
/>
<path
  d="M93,53L94,55L126,81L145,73L135,37L132,36Z"
  fill="rgb(0, 182, 197)"
  stroke="rgb(0, 182, 197)"
/>
<path
  d="M337,11L359,36L379,35L382,32L385,-1L341,-1Z"
  fill="rgb(161, 225, 255)"
  stroke="rgb(161, 225, 255)"
/>
<path
  d="M317,26L326,62L342,64L359,36L337,11Z"
  fill="rgb(160, 228, 255)"
  stroke="rgb(160, 228, 255)"
/>
<path
  d="M65,380L92,403L96,404L113,380L101,355L69,353Z"
  fill="rgb(78, 178, 137)"
  stroke="rgb(78, 178, 137)"
/>
<path
  d="M239,25L243,29L288,21L285,-1L246,-1Z"
  fill="rgb(105, 209, 239)"
  stroke="rgb(105, 209, 239)"
/>
<path
  d="M-1,369L25,378L37,341L36,339L-1,333Z"
  fill="rgb(0, 149, 110)"
  stroke="rgb(0, 149, 110)"
/>
<path
  d="M53,180L59,196L85,215L91,215L102,203L94,166L86,164Z"
  fill="rgb(22, 184, 175)"
  stroke="rgb(22, 184, 175)"
/>
<path
  d="M36,229L36,230L62,242L85,215L59,196Z"
  fill="rgb(0, 176, 160)"
  stroke="rgb(0, 176, 160)"
/>
<path
  d="M56,115L61,130L79,138L103,120L105,109L78,92L64,95Z"
  fill="rgb(0, 176, 179)"
  stroke="rgb(0, 176, 179)"
/>
<path
  d="M4,417L31,432L52,420L44,391L29,387Z"
  fill="rgb(18, 150, 102)"
  stroke="rgb(18, 150, 102)"
/>
<path
  d="M401,69L406,95L445,80L420,51Z"
  fill="rgb(202, 240, 255)"
  stroke="rgb(202, 240, 255)"
/>
<path
  d="M158,79L158,122L201,110L198,87Z"
  fill="rgb(87, 207, 217)"
  stroke="rgb(87, 207, 217)"
/>
<path
  d="M96,443L105,455L141,441L134,423L100,412Z"
  fill="rgb(98, 179, 128)"
  stroke="rgb(98, 179, 128)"
/>
<path
  d="M60,460L71,477L103,476L104,475L105,455L96,443L69,446Z"
  fill="rgb(71, 160, 104)"
  stroke="rgb(71, 160, 104)"
/>
<path
  d="M285,-1L288,21L289,22L317,26L337,11L341,-1Z"
  fill="rgb(130, 215, 250)"
  stroke="rgb(130, 215, 250)"
/>
<path
  d="M139,501L140,484L104,475L103,476L100,501Z"
  fill="rgb(93, 165, 104)"
  stroke="rgb(93, 165, 104)"
/>
<path
  d="M-1,462L27,469L34,461L31,432L4,417L-1,418Z"
  fill="rgb(0, 135, 82)"
  stroke="rgb(0, 135, 82)"
/>
<path
  d="M31,501L27,469L-1,462L-1,501Z"
  fill="rgb(0, 121, 63)"
  stroke="rgb(0, 121, 63)"
/>
<path
  d="M-1,333L36,339L44,305L30,294L-1,304Z"
  fill="rgb(0, 157, 125)"
  stroke="rgb(0, 157, 125)"
/>
<path
  d="M461,-1L475,21L497,20L507,-1Z"
  fill="rgb(195, 223, 255)"
  stroke="rgb(195, 223, 255)"
/>
<path
  d="M166,207L173,217L209,214L213,204L198,183L178,185Z"
  fill="rgb(130, 221, 214)"
  stroke="rgb(130, 221, 214)"
/>
<path
  d="M135,37L145,73L156,77L180,44L167,24Z"
  fill="rgb(27, 192, 210)"
  stroke="rgb(27, 192, 210)"
/>
<path
  d="M78,92L105,109L115,104L126,81L94,55Z"
  fill="rgb(0, 180, 189)"
  stroke="rgb(0, 180, 189)"
/>
<path
  d="M-1,259L22,260L36,230L36,229L17,217L-1,222Z"
  fill="rgb(0, 156, 136)"
  stroke="rgb(0, 156, 136)"
/>
<path
  d="M-1,304L30,294L31,270L22,260L-1,259Z"
  fill="rgb(0, 154, 128)"
  stroke="rgb(0, 154, 128)"
/>
<path
  d="M201,-1L216,22L239,25L246,-1Z"
  fill="rgb(75, 200, 229)"
  stroke="rgb(75, 200, 229)"
/>
<path
  d="M17,217L36,229L59,196L53,180L47,177L21,184Z"
  fill="rgb(0, 165, 151)"
  stroke="rgb(0, 165, 151)"
/>
<path
  d="M48,80L64,95L78,92L94,55L93,53L86,45L66,41L52,48Z"
  fill="rgb(0, 163, 174)"
  stroke="rgb(0, 163, 174)"
/>
<path
  d="M363,80L392,104L404,99L406,95L401,69L383,63Z"
  fill="rgb(194, 240, 255)"
  stroke="rgb(194, 240, 255)"
/>
<path
  d="M-1,418L4,417L29,387L25,378L-1,369Z"
  fill="rgb(0, 140, 96)"
  stroke="rgb(0, 140, 96)"
/>
<path
  d="M887,91L923,110L927,106L932,72L912,61Z"
  fill="rgb(195, 105, 166)"
  stroke="rgb(195, 105, 166)"
/>
<path
  d="M23,29L28,39L52,48L66,41L58,-1L30,-1Z"
  fill="rgb(0, 144, 162)"
  stroke="rgb(0, 144, 162)"
/>
<path
  d="M31,432L34,461L60,460L69,446L59,423L52,420Z"
  fill="rgb(43, 151, 99)"
  stroke="rgb(43, 151, 99)"
/>
<path
  d="M17,108L23,118L56,115L64,95L48,80L25,83Z"
  fill="rgb(0, 155, 160)"
  stroke="rgb(0, 155, 160)"
/>
<path
  d="M116,-1L132,36L135,37L167,24L173,-1Z"
  fill="rgb(0, 179, 202)"
  stroke="rgb(0, 179, 202)"
/>
<path
  d="M167,24L180,44L199,49L216,22L201,-1L173,-1Z"
  fill="rgb(58, 197, 221)"
  stroke="rgb(58, 197, 221)"
/>
<path
  d="M-1,174L21,184L47,177L42,154L18,139L-1,148Z"
  fill="rgb(0, 156, 149)"
  stroke="rgb(0, 156, 149)"
/>
<path
  d="M465,45L466,46L491,55L509,43L497,20L475,21Z"
  fill="rgb(207, 230, 255)"
  stroke="rgb(207, 230, 255)"
/>
<path
  d="M-1,148L18,139L23,118L17,108L-1,107Z"
  fill="rgb(0, 143, 143)"
  stroke="rgb(0, 143, 143)"
/>
<path
  d="M410,-1L426,30L432,29L455,-1Z"
  fill="rgb(180, 224, 255)"
  stroke="rgb(180, 224, 255)"
/>
<path
  d="M57,302L78,316L88,313L97,289L72,272Z"
  fill="rgb(61, 183, 154)"
  stroke="rgb(61, 183, 154)"
/>
<path
  d="M44,391L52,420L59,423L92,403L65,380Z"
  fill="rgb(57, 164, 118)"
  stroke="rgb(57, 164, 118)"
/>
<path
  d="M86,45L93,53L132,36L116,-1L102,-1Z"
  fill="rgb(0, 171, 190)"
  stroke="rgb(0, 171, 190)"
/>
<path
  d="M58,-1L66,41L86,45L102,-1Z"
  fill="rgb(0, 156, 176)"
  stroke="rgb(0, 156, 176)"
/>
<path
  d="M79,138L86,164L94,166L113,159L119,147L103,120Z"
  fill="rgb(6, 187, 186)"
  stroke="rgb(6, 187, 186)"
/>
<path
  d="M9,68L25,83L48,80L52,48L28,39Z"
  fill="rgb(0, 146, 157)"
  stroke="rgb(0, 146, 157)"
/>
<path
  d="M18,139L42,154L61,130L56,115L23,118Z"
  fill="rgb(0, 161, 160)"
  stroke="rgb(0, 161, 160)"
/>
<path
  d="M22,260L31,270L69,264L62,242L36,230Z"
  fill="rgb(0, 170, 149)"
  stroke="rgb(0, 170, 149)"
/>
<path
  d="M-1,29L23,29L30,-1L-1,-1Z"
  fill="rgb(0, 124, 142)"
  stroke="rgb(0, 124, 142)"
/>
<path
  d="M-1,107L17,108L25,83L9,68L-1,68Z"
  fill="rgb(0, 139, 144)"
  stroke="rgb(0, 139, 144)"
/>
<path
  d="M-1,222L17,217L21,184L-1,174Z"
  fill="rgb(0, 150, 137)"
  stroke="rgb(0, 150, 137)"
/>
<path
  d="M-1,68L9,68L28,39L23,29L-1,29Z"
  fill="rgb(0, 131, 144)"
  stroke="rgb(0, 131, 144)"
/>
</svg>
